<mxfile host="app.diagrams.net" modified="2023-08-31T14:55:59.938Z" agent="Mozilla/5.0 (Windows NT 10.0; Win64; x64) AppleWebKit/537.36 (KHTML, like Gecko) Chrome/116.0.0.0 Safari/537.36 Edg/116.0.1938.62" version="21.7.1" etag="5w203g0-uizbEv3cyucs" type="github">
  <diagram name="ページ1" id="NTPXhdbIS62uYHtrku5r">
    <mxGraphModel>
      <root>
        <mxCell id="0" />
        <mxCell id="1" parent="0" />
      </root>
    </mxGraphModel>
  </diagram>
</mxfile>
